<svg className="phone-svg" viewBox="0 0 298 336" fill="none" xmlns="http://www.w3.org/2000/svg">
<path d="M131.478 112.354C139.538 104.294 93.8374 60.9316 82.1215 53.2537C79.1665 51.3171 75.2918 51.2799 72.2292 53.0414C67.6951 55.6493 60.2434 62.2735 48.227 80.234C27.4864 111.234 63.606 169.815 114.066 221.911C166.162 272.37 224.753 308.481 255.753 287.741C273.713 275.724 280.337 268.273 282.945 263.739C284.707 260.676 284.67 256.801 282.733 253.846C275.055 242.13 229.412 194.167 221.351 202.228L195.795 227.783L105.922 137.91L131.478 112.354Z" stroke="black" stroke-width="15"/>
<path d="M113.83 56.4706C121.953 60.523 124.978 63.8967 128.536 71.2377" stroke="black" stroke-width="15" stroke-linecap="round"/>
<path d="M121.414 36.0235C137.73 44.1632 143.805 50.9397 150.952 65.6847" stroke="black" stroke-width="15" stroke-linecap="round"/>
<path d="M126.83 12.7503C153.069 25.8408 162.84 36.739 174.333 60.4523" stroke="black" stroke-width="15" stroke-linecap="round"/>
</svg>
