<svg className="star" viewBox="0 0 80 76" fill="none" xmlns="http://www.w3.org/2000/svg">
<path d="M41.4266 4.48075L47.95 24.5578C48.8202 27.2359 51.3159 29.0491 54.1319 29.0491H75.2421C76.6952 29.0491 77.2993 30.9086 76.1238 31.7627L59.0452 44.171C56.7671 45.8261 55.8138 48.76 56.684 51.4382L63.2074 71.5152C63.6564 72.8971 62.0747 74.0463 60.8991 73.1922L43.8206 60.784C41.5424 59.1288 38.4576 59.1288 36.1794 60.784L19.1009 73.1922C17.9253 74.0463 16.3436 72.8972 16.7926 71.5152L23.316 51.4382C24.1862 48.76 23.2329 45.8261 20.9548 44.171L3.87622 31.7627C2.70066 30.9086 3.30481 29.0491 4.75791 29.0491H25.8681C28.6841 29.0491 31.1798 27.2359 32.05 24.5578L38.5734 4.48074C39.0224 3.09879 40.9776 3.09877 41.4266 4.48075Z" fill="#EEA881" stroke="black" stroke-width="5"/>
</svg>
